# xmcd CD database file generated by OrangeCD 6.4
#
# Track frame offsets:
#	150
#	21188
#	40120
#	61552
#	79967
#	99461
#	119958
#	138099
#	155811
#	175286
#	195515
#	212308
#	233585
#	251009
#	266826
#
# Disc length: 3844 seconds
#
# Revision: 1
# Processed by: cddbd v1.5.2PL0 Copyright (c) Steve Scherf et al.
# Submitted via: OrangeCD 6.4
#
DISCID=ca0f020f
DTITLE=Donell Jones - Journey of a Gemini
DYEAR=2006
DGENRE=Blues
TTITLE0=Special Girl
TTITLE1=Better Start Talking
TTITLE2=I'm Gonna Be
TTITLE3=My Apology
TTITLE4=Spend the Night
TTITLE5=Portrait of a Woman
TTITLE6=Cry
TTITLE7=Ooh Na Na
TTITLE8=Feelin' You
TTITLE9=Can't Wait
TTITLE10=Lust or Love
TTITLE11=If You Want
TTITLE12=Cuttin' Me Off
TTITLE13=Another Life
TTITLE14=I'm Gonna Be
EXTD=
EXTT0=
EXTT1=
EXTT2=
EXTT3=
EXTT4=
EXTT5=
EXTT6=
EXTT7=
EXTT8=
EXTT9=
EXTT10=
EXTT11=
EXTT12=
EXTT13=
EXTT14=
PLAYORDER=
